<?xml version="1.0" standalone="no"?>
<!DOCTYPE svg PUBLIC "-//W3C//DTD SVG 20010904//EN"
 "http://www.w3.org/TR/2001/REC-SVG-20010904/DTD/svg10.dtd">
<svg version="1.0" xmlns="http://www.w3.org/2000/svg"
 width="500.000000pt" height="500.000000pt" viewBox="0 0 500.000000 500.000000"
 preserveAspectRatio="xMidYMid meet">
<metadata>
Created by potrace 1.11, written by Peter Selinger 2001-2013
</metadata>
<g transform="translate(0.000000,500.000000) scale(0.100000,-0.100000)"
fill="#000000" stroke="none">
<path d="M364 3791 c-2 -2 -4 -46 -4 -98 0 -81 -2 -93 -17 -94 -10 -1 -54 -2
-98 -3 l-80 -1 -1 -501 -1 -502 71 0 c39 0 83 -1 98 -1 l27 -1 3 -97 3 -98
400 0 400 0 1 93 c1 51 3 95 6 97 5 5 74 8 140 6 l47 -1 -1 -82 c0 -46 0 -91
1 -100 1 -15 13 -17 103 -15 l103 2 0 100 0 100 -100 5 -100 5 0 90 0 90 95 3
c52 2 97 7 100 12 3 4 5 185 5 402 l0 393 -92 1 c-50 1 -95 4 -100 7 -5 3 -9
48 -8 99 l1 93 -499 0 c-274 0 -500 -2 -503 -4z m792 -498 l1 -293 -199 0
-198 0 0 -105 0 -104 98 -3 97 -3 1 -92 1 -93 -193 0 -194 0 0 494 0 495 293
-2 292 -2 1 -292z"/>
<path d="M1803 3793 c-6 -2 -9 -1312 -4 -1390 1 -9 53 -11 203 -10 l203 2 0
195 0 195 95 0 95 0 1 -90 c1 -49 2 -93 3 -97 0 -4 44 -6 96 -5 78 2 95 -1 96
-13 1 -8 3 -49 4 -90 1 -41 3 -80 4 -86 1 -9 82 -12 303 -10 l301 1 0 85 c-1
47 -2 93 -2 103 -1 15 -13 17 -100 17 l-98 0 -1 83 c0 45 0 90 -1 100 -1 15
-13 17 -99 17 l-98 0 -1 95 -1 95 199 0 c152 0 199 3 200 13 5 77 2 566 -3
579 -7 14 -21 16 -86 14 -110 -3 -111 -2 -109 95 1 44 -1 86 -5 92 -5 9 -163
12 -597 12 -325 0 -594 -1 -598 -2z m992 -400 l1 -193 -41 -1 c-22 0 -67 -1
-100 -1 l-61 0 1 -97 0 -96 -195 -3 -195 -2 1 292 c1 161 2 294 3 294 0 1 133
1 293 0 l293 -1 0 -192z"/>
<path d="M3640 3790 c-4 -3 -7 -318 -7 -700 l2 -695 601 -1 601 -2 0 104 0
104 -396 2 -396 3 -1 595 -1 595 -197 0 c-108 0 -201 -2 -206 -5z"/>
<path d="M310 2015 l0 -75 -74 0 -75 0 2 -75 c0 -41 5 -76 9 -76 4 -1 36 -2
71 -3 l62 -1 3 -72 c2 -61 6 -73 20 -74 9 0 142 -1 295 -1 194 -1 277 -4 278
-12 6 -114 4 -126 -16 -127 -11 0 -177 -1 -370 -2 l-350 -2 0 -75 0 -75 445 0
445 0 1 60 c1 33 2 66 3 73 1 8 23 12 74 12 l73 0 -1 78 0 77 -73 0 c-43 -1
-72 4 -73 10 0 5 -1 36 0 68 0 43 -4 60 -16 64 -8 3 -142 6 -296 7 l-281 1 -1
68 -2 67 41 0 c23 0 157 1 298 2 l257 1 -1 79 -1 78 -373 0 -374 0 0 -75z"/>
<path d="M1528 2078 c-3 -7 -4 -41 -3 -75 l1 -63 -73 0 c-42 0 -73 -4 -74 -10
0 -5 0 -98 0 -205 0 -107 0 -204 0 -215 1 -18 8 -20 71 -20 49 0 70 -4 71 -12
1 -7 2 -40 3 -73 l1 -60 448 -1 447 -1 0 77 0 78 -357 0 c-197 0 -364 1 -370
1 -10 1 -13 51 -13 216 l0 215 38 0 c20 1 187 1 370 1 l332 0 0 79 0 80 -444
0 c-346 0 -445 -3 -448 -12z"/>
<path d="M2740 2010 l0 -80 295 3 c256 2 295 0 296 -13 7 -124 3 -131 -57
-129 -22 1 -150 1 -286 0 l-248 -1 0 -73 0 -73 -72 1 -73 0 -2 -77 -2 -78 74
0 75 0 0 -74 0 -73 448 1 447 1 0 297 0 298 -72 0 c-82 0 -77 -7 -74 93 l2 57
-375 0 -376 0 0 -80z m591 -394 c2 -38 -3 -111 -7 -115 -7 -7 -415 -3 -422 4
-4 4 -7 35 -7 70 l0 62 218 0 c212 -1 217 -1 218 -21z"/>
<path d="M3809 2063 c0 -16 -1 -183 -1 -373 l-1 -345 152 -2 151 -2 1 52 c0
29 0 161 0 295 l0 242 99 1 c55 0 129 0 165 0 36 0 89 0 119 0 l55 -1 0 -267
c0 -148 0 -280 1 -295 l0 -26 150 1 150 1 0 298 0 298 -75 0 -74 0 2 73 2 72
-448 3 -447 2 -1 -27z"/>
</g>
</svg>
